<svg xmlns="http://www.w3.org/2000/svg" fill="none" viewBox="152.337 123.735 783.554 504.775">
    <path d="M765.312 165.772c-21.853 5.906-35.724 75.059-47.612 62.892-12.521-12.815-13.659-23.935-37.169-18.539-31.552 7.243.323 106.379-71.538 110.449-73.17 4.144-67.748-91.623-126.991-87.817-68.49 4.4-67.365 100.234-101.69 105.931-26.698 4.43-92.018-172.158-128.111-172.499-76.725-.726-74.204 51.592-74.204 51.592l1.207 315.693s10.158-84.946 83.219-71.462c38.853 7.17 36.651 125.635 80.309 126.375 57.352.973 77.525-116.797 154.604-128.207 64.722-9.581 100.072 64.008 150.689 49.455 49.794-14.317 80.899-153.932 155.362-160.317 44.663-3.83 112.865 102.708 112.865 102.708l-4.041-254.888s-30.514 68.07-68.912 65.254c-47.209-3.462-53.578-103.216-77.987-96.62Z" fill="#fff"/>
</svg>