<svg xmlns="http://www.w3.org/2000/svg" fill="none" viewBox="0 0 783.554 504.775">
    <path d="M612.975 42.038c-21.854 5.905-35.724 75.059-47.612 62.891-12.521-12.815-13.66-23.934-37.169-18.538-31.552 7.242.323 106.378-71.539 110.448-73.17 4.144-67.747-91.622-126.991-87.817-68.49 4.4-67.364 100.234-101.69 105.931-26.697 4.431-92.017-172.158-128.11-172.499-76.726-.725-74.204 51.592-74.204 51.592l1.207 315.694s10.158-84.947 83.219-71.463c38.853 7.171 36.651 125.635 80.309 126.376 57.352.972 77.525-116.797 154.603-128.207 64.723-9.581 100.073 64.007 150.689 49.454 49.795-14.317 80.9-153.932 155.363-160.317 44.662-3.829 112.865 102.708 112.865 102.708l-4.041-254.887s-30.514 68.069-68.912 65.254c-47.209-3.462-53.579-103.216-77.987-96.62Z" fill="#FFF"/>
    <ellipse cx="681.163" cy="346.265" rx="24.5" ry="24" fill="#FFF"/>
    <circle cx="389.663" cy="421.265" r="11" fill="#FFF"/>
    <circle cx="649.663" cy="391.265" r="11" fill="#FFF"/>
    <circle cx="232.663" cy="98.265" r="11" fill="#FFF"/>
</svg>