<svg xmlns="http://www.w3.org/2000/svg" viewBox="0 -1.5 47.912 39.5" fill="none">
  <path d="M6.135 14.8S7.552.013 22.969 0c14.913-.012 17.034 13.074 17.089 13.164" stroke-width="3" stroke="#fef4d1"/>
  <path d="M42.152 15.884c-.955.814-12.063-5.996-12.535-7.095C29.171 7.751 42.755.972 42.935 1.78c.258 1.154.025 13.415-.783 14.104Z" fill="#fef4d1"/>
  <path d="M42 21.547S40.575 36.487 25.076 36.5c-14.993.012-17.125-13.209-17.18-13.3" stroke-width="3" stroke="#fef4d1"/>
  <path d="M5.791 20.452c.96-.823 12.127 6.058 12.602 7.168.448 1.049-13.208 7.898-13.389 7.081-.26-1.166-.025-13.553.787-14.249Z" fill="#fef4d1"/>
</svg>
